<svg id="Camada_1" data-name="Camada 1" xmlns="http://www.w3.org/2000/svg" viewBox="0 0 154.97 155.05"><defs><style>.cls-1{fill:#d71c23;}.cls-2{fill:#fdf9f8;}</style></defs><path class="cls-1" d="M123.89,138.24l-100,16.81L0,24.24,130.77,0c8.12,44,16.1,87.24,24.2,131.17l-21.68,4.75c-6.3,1.31-9.39-5.14-16.54-5.41-3.62-32.3-2.45-64-.65-96.36-4.13,0-10.74.58-16-.16,3.92,32.39,3.48,64.88.21,98.28C106.09,134.42,117.71,126,123.89,138.24Z"/><path class="cls-2" d="M123.89,138.24c-7-6.79-15.63-2.13-23.44-3.19-5.43-.74-11-.14-16.58-.14l-.21-3.81L97.28,129V37.34c-3.43-3.47-9,.46-16-4.28h50.25l.5,1.56L118.85,37v91.36c4.16,4,13.75-2.67,14.38,7.61Z"/></svg>