<svg id="Camada_1" data-name="Camada 1" xmlns="http://www.w3.org/2000/svg" viewBox="0 0 1061.03 915.89"><defs><style>.cls-1{fill:#9ba8b1;}.cls-2{fill:#4a332c;}.cls-3{fill:#7e8c93;}.cls-4{fill:#734b3f;}.cls-5{fill:#888f99;}.cls-6{fill:#9aa8b1;}.cls-7{fill:#bbc5ce;}.cls-8{fill:#7d8b94;}.cls-9{fill:#76564a;}.cls-10{fill:#9da8b0;}.cls-11{fill:#414850;}.cls-12{fill:#545f68;}.cls-13{fill:#684b43;}.cls-14{fill:#888f97;}.cls-15{fill:#879098;}.cls-16{fill:#88919b;}.cls-17{fill:#899096;}.cls-18{fill:#fbfaf7;}.cls-19{fill:#9da6aa;}.cls-20{fill:#fbf6f2;}.cls-21{fill:#879096;}.cls-22{fill:#fdfbf6;}.cls-23{fill:#fbf8f3;}.cls-24{fill:#90695c;}.cls-25{fill:#9aa2a9;}.cls-26{fill:#715041;}.cls-27{fill:#f9f3f0;}.cls-28{fill:#9da1a3;}.cls-29{fill:#848a8f;}.cls-30{fill:#f5f3ec;}.cls-31{fill:#f6f4ef;}.cls-32{fill:#a5a7ac;}.cls-33{fill:#f3f9fb;}.cls-34{fill:#f7f3ef;}.cls-35{fill:#f4f8f8;}.cls-36{fill:#eff5f8;}.cls-37{fill:#f4f8fb;}.cls-38{fill:#9ca8b3;}.cls-39{fill:#fff;}.cls-40{fill:#42494d;}.cls-41{fill:#566063;}.cls-42{fill:#d2d9df;}.cls-43{fill:#525f68;}.cls-44{fill:#715e58;}.cls-45{fill:#675c5c;}.cls-46{fill:#5c606a;}.cls-47{fill:#5b5a60;}.cls-48{fill:#9ba3aa;}.cls-49{fill:#9ca4ab;}.cls-50{fill:#a4b2ba;}.cls-51{fill:#96a4ad;}.cls-52{fill:#9bacb6;}.cls-53{fill:#9da4ab;}.cls-54{fill:#9ba8b5;}.cls-55{fill:#f8fbfd;}.cls-56{fill:#a2aaac;}.cls-57{fill:#a2a7ac;}.cls-58{fill:#a3aeb7;}.cls-59{fill:#f6f9fa;}.cls-60{fill:#f6fafc;}.cls-61{fill:#f3f7fa;}.cls-62{fill:#eff4f6;}.cls-63{fill:#98a1a8;}.cls-64{fill:#4a2e22;}.cls-65{fill:#42484f;}.cls-66{fill:#916a59;}.cls-67{fill:#68757d;}.cls-68{fill:#785140;}.cls-69{fill:#818b94;}.cls-70{fill:#f3f7f7;}.cls-71{fill:#3e494b;}</style></defs><path class="cls-1" d="M252.64,345.92c23.2-16.69,46.61-33.07,73-44.44,12.48-5.36,24.59-11.77,38.11-14.43a8.28,8.28,0,0,0,5.89-1.62A284.61,284.61,0,0,1,444,269.84c-.44,5-5.07,1.2-6.43,2.67,20.13-2,39.06,5.39,57.86,11.62a356.44,356.44,0,0,1,84.92,40.93c32.33,21.89,60.91,47.65,84.07,79.34C697.21,449.32,717,499,722.69,554.54c2,19.21,1.14,38.36,1.52,57.53.27,14.1.33,14.38,14.07,14.38q64,0,127.94,0c6.2,0,12.43-.06,18.16,2.8,6.33,3.17,10.32,8.14,9.93,15.45-.41,7.61-5.38,11.37-12.37,13.13a63.29,63.29,0,0,1-15.51,1.5q-42,0-84,0c-3.13,0-6.37-.53-9.52.79,15.56,26.63,7.43,53.15-16.95,56.32a7.47,7.47,0,0,1-3-1.56,11.11,11.11,0,0,0-2.87-2c-3.19-1-6.48-.75-9.72-.75q-275.51,0-551,0a61.2,61.2,0,0,0-6.79.24,6.26,6.26,0,0,0-2.62,1.44,8.35,8.35,0,0,0-.94,2.73c0,1-.09,2-.09,3-.1,6.1.07,12.2,0,18.3,0,1.5.08,3,0,4.5-.18,3.88-.12,7.76-.2,11.64,0,.94,0,1.89-.07,2.83a26.15,26.15,0,0,1-.19,2.79,14.12,14.12,0,0,1-.58,2.73,5.7,5.7,0,0,1-1.6,2.22,2.77,2.77,0,0,1-2.53-.57,3.19,3.19,0,0,1,.46-3.77c0-11.95-.26-23.91.17-35.84.22-6.25-2.37-7.52-8-7.44-17.44.28-34.89.13-52.33,0-3.46,0-7.17,1-10.24-1.65,19.51-3.78,39.11-2,58.7-1,1.28.07-.37.43.92.24-.92-.81-2.12-.07-3.14-.58-16.73-1.36-33.43-.41-50.11-.53-7.3,1.94-13.22-2.9-19.88-4.13a18.3,18.3,0,0,1-9.73-13.61c.13-12.36.08-24.71,0-37.07,3.31-13.62,14.2-17.1,26-19.27,3.71-.69,7.8.66,11.12-2.12,2.07-2.35,5.24-2.58,7.76-4.06h0a20.54,20.54,0,0,1,5.75-5.85c5-6.5,6.06-13.94,5.74-21.94-1.66-41.3,2.45-81.76,16.69-120.94A307.11,307.11,0,0,1,231.5,365.51c2.57-2.45,4.9-5.17,7.34-7.77C241.12,351.1,247.59,349.33,252.64,345.92Z" transform="translate(-9.48 -82.06)"/><path class="cls-2" d="M9.79,992.64c0-32.87-.06-65.73.09-98.6,0-3.61-1.85-7.92,2.4-10.69,3.58-2.57,6.91-.29,10.32.53,5.84,1,11.72.53,17.57.53q497.81,0,995.61,0c7.78,0,15.57,1,23.33-.07,3.44-1.46,6.75-1.52,9.78,1q.36,2.87.71,5.73c1.61,28.86.34,57.74.65,86.61.06,5.8.87,11.68-.66,17.44-5.28,3.74-11.35,2.3-17.08,2.3q-284.31.12-568.63.07-228.15,0-456.28,0c-5.48,0-11.1.91-16.4-1.46A3,3,0,0,1,9.79,992.64Z" transform="translate(-9.48 -82.06)"/><path class="cls-3" d="M754.66,715.08c12.21-1.85,20.57-8.74,22.76-20.73,2.51-13.71,2.64-27.48-12.64-35.41,3.54-3.8,7.34-2.29,10.64-2.3,31.24-.14,62.47-.09,93.71-.08a77.77,77.77,0,0,0,12.51-1.32c6.58-1.06,10.25-4.5,10.54-10.69.3-6.41-3.22-11-9.32-13.39-4.32-1.71-8.8-1.92-13.39-1.91-45.56.06-91.11-.18-136.66.22-8.72.08-11.83-1.94-11.54-11.24,1.14-36.68.22-73.23-9.37-109.07-12-44.86-33.49-84.48-63.2-120.14-19.5-23.41-42.86-42.09-67-60.07a36.72,36.72,0,0,1-2.87-2.58c-2.58-4.55.67-8.79.83-13.21.2-6-1.72-9.38-8.11-9.34-1.29,0,.32.16-1,0-7-1.1-16.91,3.33-20.1-5.2-3.53-9.42-4.07-20.22,1.34-30,3.83-2.22,8.08-2.14,12.22-1.94,18.85.89,37.91-2.53,56.54,2.65,7.51,2.48,15.36,2,23.08,2.68a32.2,32.2,0,0,0,13.25,2.9c27.45,4.45,53,14.53,78.06,26.16a328.75,328.75,0,0,1,83.9,55.54c35.74,32,63.22,70,81.4,114.42,13.42,32.79,21.32,66.88,21.33,102.59,0,13.65-1.1,27.33,1.1,41,1.42,8.72,5.46,15.19,13.48,19,7.83,4.3,17.07,2.68,25.23,6.41,9,4.09,15.51,9.8,17.41,19.37,2.53,12.8,3,25.76-1.38,38.38-4.2,12.13-12.77,18.11-25.62,18.43-14.22.36-28.47-.84-42.67.65-4.1.16-4.15,3-4.14,6,.06,13.09.06,26.17.08,39.25,7.94.93,15.81-.12,23.72-.44,6-.25,13.58-3.9,17.54,4.62-13.91,4.53-28,2.63-42.07,1.16-2.44-1.32-3-3.68-3.44-6.14a24.68,24.68,0,0,1-.32-5.29,128.37,128.37,0,0,0-.11-13.73,37.77,37.77,0,0,1,.08-5.32c.08-2.93-.28-5.83-.4-8.74-.22-5.15-2.82-7.65-7.89-7.81-1.62,0-3.24-.16-4.86-.16-50.87.11-101.74-.14-152.62-.22-5.52.66-11,.3-16.58.3q-261.45,0-522.9-.05c-6.35,0-13.11,1.52-18.83-2.94-.06-.75-.11-1.49-.16-2.24,3.54-3.09,7.9-2.64,12.09-2.64q277.13-.06,554.27,0C746.75,712.48,751.11,712,754.66,715.08Z" transform="translate(-9.48 -82.06)"/><path class="cls-4" d="M92.4,789.58l1.72-2.12c4.39-5.25,8-11.42,15.08-13.67l4.74-3.12c3.06-3.74,7.38-2.9,11.42-3.13,21.26-4.59,42.81-2.12,64.19-2.15q345.32-.4,690.62.1c25.23,0,50.55,1.27,75.79,2.92,8.58,1.09,14.66,7,21.53,11.31,5.06,2.8,9.78,5.88,10.41,12.4-5.18,5.07-10.73,1.06-16.16.68-6-1.11-12-.49-18-.25q-412.69.36-825.34.13c-6.51,0-13-.21-19.5.56a76,76,0,0,0-11.32,2c-2.77.81-5.9,1.49-6.62-2.86A3.78,3.78,0,0,1,92.4,789.58Z" transform="translate(-9.48 -82.06)"/><path class="cls-5" d="M621.88,271.53c-23.4-3.58-47-1.25-70.42-1.91-3.78,3.32-8.43,2.95-12.91,2.87-20.34-.4-40.72,1.25-61-1.22-7.43-.9-15.38,4.24-22.35-1.9.73-1.41,1.92-2.75,2.13-4.22,1.86-13.38,1.81-13.38,15-13.36,6.35,0,12.7,0,19.83,0-3.16-6-9.64-7.41-11.3-13-1.53-4.2.72-7.48,2.53-10.95,5.65-10.85,4.36-15.65-6.43-20.6-3.38-1.55-3.21-3.17-2.65-5.85.71-3.43,3.08-6.51,2.16-10.27,4.55-10,13.51-15.41,22.11-21.19,9.57-8.22,20.75-4,31.37-4.14,25.82,8.27,39.64,26.87,37.55,50.87-1.1,12.57-8.23,22.23-16.35,31.4,26.14,5.94,47.16-13.16,44.15-39.76-.33-2.89-1.28-5.71-1.07-8.67.39-3.07,1.44-6.25,4.86-6.24s4.74,3.31,5,6.19c.57,5.31,2.73,10.58.67,16.06-1,2.55-.78,5.09,1.47,7.09-1.32,12.41-10,19.87-20.7,29.07,8.39,0,14.63,0,20.87,0,17.54.07,15.37-1.83,15.41,15.76A2.84,2.84,0,0,1,621.88,271.53Z" transform="translate(-9.48 -82.06)"/><path class="cls-6" d="M934.49,635.1c-13.91-4.74-14.73-16.94-15.34-28.51-.74-14.26.18-28.6-.36-42.87-1-26-6.75-51.16-14.89-75.8-10-30.39-25.83-57.71-44.49-83.52C850.47,392,840.1,381,829.3,370.26c-4.13-4.1-8.07-8.4-12.09-12.6-.46-2.54-5-2.78-3.81-6,1.26-3.5,4.73-2.41,7.48-2.87,4.48-.74,7.66,3.25,11.94,3l3.76,1.92c2.64,1.3,5.18,2.7,6,5.84,7.16,7.76,15.71,14.21,21.67,23.11,2.14,5,3.76,10.51,10.24,11.76,22.18,25,37.67,54,50,84.77.72,1.8,1.48,3.58,2.22,5.37,2.72,2.76,2.71,6.56,3.77,9.95a3.09,3.09,0,0,0,.19,1.7,4.18,4.18,0,0,1,1.55,4.09q2.1,11.67,4.21,23.35c.07,9.9,1.49,19.75,2.93,29.44,2.6,17.52.71,34.94.92,52.4.09,7.16-.35,14.37,3.12,21,2,3.81.45,6.1-2.75,8C938.73,635.72,936.73,636.7,934.49,635.1Z" transform="translate(-9.48 -82.06)"/><path class="cls-7" d="M432.53,103.7c18.66-10.28,39.17-14.4,59.86-17.76a296.65,296.65,0,0,1,125,6.35C627.51,95,638,97.42,646.85,103.74c-4.36,3.54-9.51,2.61-14.51,2.6-62.61-.2-125.22,0-187.82-.09C440.35,106.25,436,107,432.53,103.7Z" transform="translate(-9.48 -82.06)"/><path class="cls-8" d="M455.19,269.37l96.27.25c0,7.45.34,14.91-.1,22.34-.39,6.53,1.51,9.9,8.61,9a60.84,60.84,0,0,1,7.76-.05c15.25,0,19.74,7.92,12.49,22-.58,1.12-1,2.34-1.43,3.51-17.1-8.92-33.41-19.21-51.23-26.92-29.36-12.71-59.42-22.46-91.3-26.74,2.08-2.31,5.9,0,7.72-2.87Z" transform="translate(-9.48 -82.06)"/><path class="cls-9" d="M19.93,885.32l-7.65-2a3.47,3.47,0,0,1,0-1.57,6,6,0,0,1,6.85-3.07c7.44,2.74,15.19,1.54,22.84,1.81q502.72.06,1005.36,0c1.06,0,2.16,0,3.23,0,3.76.67,6.06-2.28,9-3.72,3.86-.21,5.94,2.18,7.58,5.21l1.77,3.3-9.31.07c-3.43,1.6-7.07.77-10.59.77q-508.75.08-1017.51,0C27.63,886.15,23.67,887,19.93,885.32Z" transform="translate(-9.48 -82.06)"/><path class="cls-1" d="M934.49,635.1c1.62-.05,3.09-.39,3.94-2,5.64-2.62,10.55.19,15.58,2.09,8.53,1.78,17,3.59,25.58,5.34C991.74,643,1000.33,652.65,1001,665c.33,6.49.19,13,.13,19.52-.15,18.46-12,31.8-30.55,32.47-20.45.74-41,0-61.44-.12,12.43-3.31,25.13-1.69,37.62-1.28,16.9.55,29.69-11.8,30.74-29.4.31-5.18,0-10.39.06-15.59.33-21-10.52-28.54-30.56-31.43C942.45,638.47,937.82,639.05,934.49,635.1Z" transform="translate(-9.48 -82.06)"/><path class="cls-10" d="M832.82,351.84c-4.13,5.11-8.07-.66-11.88-.94-9-.67-4.57,3.46-3.73,6.76-10.28-4.72-16.31-14.56-25.44-20.84-39.85-27.38-82.84-47.66-129.86-59.18a25.16,25.16,0,0,0-4.85-.25c-3.69-2-8-2-11.77-3.76-7.94.83-15.59-1.61-23.41-2.1v-4c17.75,3.47,35.91,3.86,53.66,7.75C734.2,288.14,787.26,312.21,832.82,351.84Z" transform="translate(-9.48 -82.06)"/><path class="cls-11" d="M498.79,138.65a2.63,2.63,0,0,1-.38-1.73c-1.5-13.63-.65-14.94,12.64-14.87,22.41.12,44.84-1.12,67.22,1.08a6.39,6.39,0,0,1,3,2.06c.44,11.06,1.12,22.12-.34,33.16l-.26-.17c-5.69,2-11-.57-16.11-2C542.78,149.86,520.51,145.28,498.79,138.65Z" transform="translate(-9.48 -82.06)"/><path class="cls-12" d="M498.79,138.65c11.32-1.9,21.32,3.48,31.78,6,16.82,4.06,33.44,9,50.14,13.53l.15,11.75c-4.24,3.54-8.49.32-12.73,0-12.07-1.1-24.42,3.08-36.28-1.89-11.11,0-22.31-1.29-33.25,1.86Z" transform="translate(-9.48 -82.06)"/><path class="cls-13" d="M956,768.41c-5.22,2.94-10.93,2.1-16.12.89-10.69-2.5-21.51-1.91-32-.84-7.24.73-14.06-.57-21.07-.57q-371.55.17-743.1-.28c-6.81,0-13.36,6.88-20.22.77,4.16-4.57,9.47-5.68,15.35-5.14,16.82,1.39,33.64.18,50.45.17q352.56-.3,705.12-.12c3.3,0,6.49.4,9.26,2.4l42.61.07a2.93,2.93,0,0,1,3.95.07Z" transform="translate(-9.48 -82.06)"/><path class="cls-14" d="M432.53,103.7l201-.11c-2.19,6.57-7.89,4.44-12.22,4.46-38.62.22-77.23.12-115.85.13-13.31,0-26.61-.06-39.92,0-5.52,0-11,0-15.69-1.7.47,6.11,5,6.3,9.78,6,9.09.29,18.19-.46,27.24.52,9.32,1.41,7.85,6.42,4.05,12.21-16.53.1-33.07-.16-49.58.48-7.48.29-9.95-2.19-9.06-9.36C432.75,112.16,432.46,107.91,432.53,103.7Z" transform="translate(-9.48 -82.06)"/><path class="cls-15" d="M488.92,115.23H459.6c-3.21-2.31-2.43-4.26.73-5.58,3.39-1.43,7.05-1,10.62-1q49.32-.06,98.65,0c4.87,0,9.77.38,14.58-.82,9.65-.57,19.31-.33,29-.15,6.3,1.46,12.7,1,19.07,1,11.62,0,13,1.14,14.7,12.45.36,1.71.52,3.33-1.68,4-20-2.13-40-.38-60-1-1.84-.22-3.32.69-4.81,1.57-.53-.2-1.06-.37-1.6-.53-1.54-2.13-1.76-4.19.33-6.13,10.79-1.73,21.59-.17,31.07-.75-7.53-.31-16.49.39-25.38-1.61,12.65-3.59,25.65-1.46,37.2-2.33,2.52-.25.46-1.9,1.23-.85.26.35,0,.57-.75.61-8.75.57-17.53.42-26.27.14-6.3-.2-12,.49-17,4.73-17.31-4.19-35-2.33-52.47-2.89a15.17,15.17,0,0,0-9.33,2.25c-5.94,3.55-13.89,3-20.55-.27C494.3,116.64,491.83,115.46,488.92,115.23Z" transform="translate(-9.48 -82.06)"/><path class="cls-16" d="M578.83,119.14c0,2,0,3.93,0,5.89-22.59.1-45.2.77-67.76,0-9.58-.31-13.63,2.33-12.65,11.86-3.05-3.56,2-12.33-7.53-11.72-2.4-3,4.12-7.71-2-10,8.78-1.11,17.83,5.49,25.79,1.63,14.95-7.27,30.32-1.19,45.2-3.72,7.66-1.3,12.8,3.43,18.9,6Z" transform="translate(-9.48 -82.06)"/><path class="cls-16" d="M646.92,121c-1.51-8-6.3-10.34-14.26-9.91-6.13.33-12.78,2.2-18.66-1.72,1.73-1.3,3.63-.81,5.71-1q-76.34,0-152.27.12c-1.31.2.48,1.63,0,.44-.18-.41,0-.64.62-.63,37,.3,74,0,111,.14,1.92,0,3.92-.34,5.64.94-2.88,3.19-6.7,1.88-10.1,1.89-36,.09-72.08,0-108.11.26-2.15,0-8.3-4.14-6.87,3.7-5.37-.49-11.14,1.53-16-2.57,1.55-2.48,5.38-.35,6.65-3.69-1.58-3.89-5.21,1.69-7.36-1.77,2.73-2.94,6.41-1.67,9.54-1.67,56.63-.09,113.27,0,169.9-.14,3.73,0,7.87,1.47,11.15-1.79l13.36.15Q646.9,112.37,646.92,121Z" transform="translate(-9.48 -82.06)"/><path class="cls-17" d="M476.49,191.12c4.48,2.67,1.31,6.45.13,8.42-3.33,5.49,1.3,5.72,3.93,6.81,8.28,3.4,11.93,13,6.59,20.53-2.71,3.81-4.18,8-6.26,11.91C469,223.86,468.06,207.92,476.49,191.12Z" transform="translate(-9.48 -82.06)"/><path class="cls-18" d="M92.4,789.58l-.17,2c-1.92,2.35-.77,5.8-2.87,8.09-1.4,2.1-2.83,4.2-4.12,6.38-4.36,6.5-9.51,12.44-13.46,19.24-7.29,8.54-13.08,18.43-22.43,25.14a2.24,2.24,0,0,1-2.35-.92c-.65-3.18,2.51-4.83,3.23-7.41-1.81-1.32-4,1.34-5.6-1.13A8.1,8.1,0,0,1,46,838.79c1.21-1,3.83-2,3.76-2.77-.85-9.18,8.4-11.58,12.69-16,5.72-5.85,11-12.33,17-17.9,2.76-2.56,4.31-5.26,6.09-8.28C86.79,791.66,87.66,787,92.4,789.58Z" transform="translate(-9.48 -82.06)"/><path class="cls-19" d="M954,635.22c-5.46,1.28-10.15-3.21-15.58-2.09,1.17-2.11,5.1-1.5,3.11-6.8-5.32-14.17-3.86-29.28-2-44.05.78-6.2,1.81-12.21-1.33-18a16.28,16.28,0,0,1-1.66-10.39c1.52-10.11-2.85-20.16-.07-30.23,8.16,28.39,6.21,57.54,6,86.49C942.39,620.81,945.73,628.91,954,635.22Z" transform="translate(-9.48 -82.06)"/><path class="cls-20" d="M994.59,801.41c1.85-.58,3.37-4.87,5.65-.2,2.42,4.93,5.16,9.72,8,14.4,1.51,2.45,1.2,7.76,7.05,4.57,2-1.07,2.82,1.67,2.54,3.85-1.25,9.64,9.55,10.14,12.84,16.55.93,1.81,13.46,18.74,13.17,21.42-2,.74-3.58-.31-5.11-1.41-12.17-10.83-22.2-23.57-32.19-36.35-3.33-5.7-7.59-10.79-11-16.43C994.41,805.8,993.23,803.79,994.59,801.41Z" transform="translate(-9.48 -82.06)"/><path class="cls-21" d="M569,167.9l11.84,2c6.17,4.66,13.26,8,18.16,14.48,8.85,11.68,9.32,24.7,7.28,38.32-4.95-.72-4.12-3.95-3.27-7.33,1.51-6.07,1.6-12.08-1.59-17.72-.69-1.23-1.09-3.72-3.16-2.57-1.07.6-1.29,2.75-1.9,4.19a2.47,2.47,0,0,1-3.14-1.51c-3.77-10.74-11.59-17.65-21.26-23C569.48,173.44,566.78,171.57,569,167.9Z" transform="translate(-9.48 -82.06)"/><path class="cls-22" d="M950.18,765.83l-3.95-.07c-10.33-3.41-21-.75-31.43-1.74-3.27-.31-7.13,1.89-9.75-1.9,8.83-3,19.11.79,27.19-6.44,3.78-3.38,9,.36,12.68,1.18,5.62,1.27,12,2.26,18.3,6.28C958.27,764.19,953.42,762,950.18,765.83Z" transform="translate(-9.48 -82.06)"/><path class="cls-23" d="M136.42,765.74c-4.54-.19-9,.17-13,2.64l-9.5,2.29c7.82-6.85,17.48-16.81,26.43-12.87,8.34,3.68,15.62,3.41,23.51,3.83,3.4.19,6.86-.93,10.3-1.46l.39,3.9C161.94,766.63,149.07,763.56,136.42,765.74Z" transform="translate(-9.48 -82.06)"/><path class="cls-24" d="M994.59,801.41l2.49,5.65c-1.12,3.07-3.12,5.61-6.38,3.4-7.55-5.1-15.05-10.2-23.34-14-1.18-.54-2.3-1.78-1.26-3,1.94-2.37,4.41-3.68,7.54-2,4.55-.68,8.93,3,13.55.52,4.22-1.65,2.63,2.41,3.75,3.81C990.76,798.53,992.52,800.08,994.59,801.41Z" transform="translate(-9.48 -82.06)"/><path class="cls-25" d="M160.56,713.24h10.35l.06,2H103.79a20,20,0,0,1-13.51-6c6.87-3.12,11.53,3.5,17.57,4A305.21,305.21,0,0,1,160.56,713.24Z" transform="translate(-9.48 -82.06)"/><path class="cls-26" d="M1040.18,859.77l3.69,2.23a24.36,24.36,0,0,0,8.14,7.5c1.74,1.54,4.07,2.41,5.25,4.58l-.11-.09c1.84.39,3.34,1,2.46,3.38-1.42,2.51-2,5.85-5.89,5.92-1.65-2.71-4.57-3.24-7.25-4.18a14,14,0,0,1-2.3-1.29C1037.12,873.07,1038.72,866.4,1040.18,859.77Z" transform="translate(-9.48 -82.06)"/><path class="cls-27" d="M17.78,879l-5.5,2.75c-.69-2-3-4.47-.9-6.09,6-4.51,10.71-11.69,19.78-10.35l.91,1C30.05,873.64,24.12,876.56,17.78,879Z" transform="translate(-9.48 -82.06)"/><path class="cls-28" d="M80.53,658.56c4.1,12.35,3.11,24.71,0,37.07C77.76,683.27,77.29,670.92,80.53,658.56Z" transform="translate(-9.48 -82.06)"/><path class="cls-29" d="M582.77,123.06c17.46,0,34.93-.08,52.39,0,3.4,0,7.19-1.29,10.08,1.85l-62.38.42c-.62-.49-.83-1-.66-1.52S582.57,123.06,582.77,123.06Z" transform="translate(-9.48 -82.06)"/><path class="cls-30" d="M990.94,795.74l-3.75-3.81c-2.09-5-6.26-8.3-9.7-12.21,6.12-1.26,16.74,7,16.9,13.49C994.41,794,992.15,794.9,990.94,795.74Z" transform="translate(-9.48 -82.06)"/><path class="cls-31" d="M109.2,773.79,94.12,787.46c1.27-5.82,5-10.27,8.28-15C105.73,767.52,106.74,774.28,109.2,773.79Z" transform="translate(-9.48 -82.06)"/><path class="cls-32" d="M874.51,394.47c-10.56,2.3-11.22-4-10.24-11.76C868.72,385.72,871.67,390.05,874.51,394.47Z" transform="translate(-9.48 -82.06)"/><path class="cls-33" d="M252.64,345.92c-3.73,5-9,8.13-13.8,11.82C238.47,348,244.12,345.28,252.64,345.92Z" transform="translate(-9.48 -82.06)"/><path class="cls-16" d="M582.77,123.06l.09,2.31c-2,10.91,1.32,22.14-1.89,33q-.29-16.4-.55-32.79C581.2,124.72,582,123.89,582.77,123.06Z" transform="translate(-9.48 -82.06)"/><path class="cls-27" d="M37.15,859.48c-1.18-7.74,2.79-10.38,9.85-10l.3.63c0,6-3.77,8.67-8.91,10.14Z" transform="translate(-9.48 -82.06)"/><path class="cls-34" d="M1059.61,877.37l-2.46-3.38c9.2-4.63,10,1.14,10,8Z" transform="translate(-9.48 -82.06)"/><path class="cls-35" d="M932.26,500.35a4,4,0,0,1-1.55-4.08l5.24-6.9C936.7,494.44,937.11,498.21,932.26,500.35Z" transform="translate(-9.48 -82.06)"/><path class="cls-36" d="M842.6,359.6l-6-5.84c2.67-.2,5.37-1.82,7.67,1.47C846.22,358,842.64,358,842.6,359.6Z" transform="translate(-9.48 -82.06)"/><path class="cls-37" d="M125.38,633.11a10.76,10.76,0,0,1-7.76,4.06C115.71,627.21,122.21,633.35,125.38,633.11Z" transform="translate(-9.48 -82.06)"/><path class="cls-35" d="M930.52,494.56a19.66,19.66,0,0,1-3.77-9.95C931.52,486.59,932.11,490.16,930.52,494.56Z" transform="translate(-9.48 -82.06)"/><path class="cls-27" d="M31.16,865.34c.14-3.85,2.11-5.83,6-5.86l.51.55c0,4-1.71,6.26-6,5.69Z" transform="translate(-9.48 -82.06)"/><path class="cls-37" d="M131.14,627.25a9.89,9.89,0,0,1-5.75,5.85C125.57,629.44,127.48,627.49,131.14,627.25Z" transform="translate(-9.48 -82.06)"/><path class="cls-34" d="M1057.26,874.08a8.1,8.1,0,0,1-5.25-4.58C1056.88,867.45,1056.33,871.62,1057.26,874.08Z" transform="translate(-9.48 -82.06)"/><path class="cls-38" d="M369.66,285.43c-1.54,2.07-2.75,5.35-5.89,1.62C365.36,285.13,367.48,285.18,369.66,285.43Z" transform="translate(-9.48 -82.06)"/><path class="cls-39" d="M301.29,478.78c18.48,1.14,37,2.37,55.46,3.34,5.38.28,7,1.43,5.86,7.62a323,323,0,0,0,.65,121.17c1.21,6.21.13,8.77-6.94,8.74q-78.15-.37-156.31,0c-7.6,0-8.14-3.46-8.4-9.4A330.31,330.31,0,0,1,203.4,508c-1-7.73,2.47-14.33,5.3-21.09,4.46,0,4.46,0,5.49,4.8,4.85-16.76,7.3-18.76,20.78-16.94l-.08-.06c13.79,6.42,28.58,2.54,42.82,3.35C285.41,478.47,293.41,480,301.29,478.78Z" transform="translate(-9.48 -82.06)"/><path class="cls-39" d="M332.55,447.55c-26.3-3.63-52.64-7-78.88-11-16.32-2.5-16.26-2.95-5.87-16.31,1.59-2.05,3.37-4,5.06-5.93a12.76,12.76,0,0,0,5.34-6.06h0c5.79-.45,6-5.67,8.05-9.35,12.42-13.95,26.84-25.51,42.45-35.66,7.58-1.28,13.22-5.63,18-11.36a312.82,312.82,0,0,1,109-41.43,7.47,7.47,0,0,1,7.37.37c2,1.23,4.43.06,6.15,1.42-1.12-2-6.14,1.16-5.48-3.72l.09.06c3-2.08,7,.67,9.87-2l-.07.05c5.55-1.91,8.05-.63,5.83,5.58-11,12.51-23.18,24.07-33,37.65-1.26,2.82-2.89,5.29-6,6.35-7.38.51-2.37,6.63-4.32,9.59A42.15,42.15,0,0,1,405.24,381c-9.68,14.1-16.77,29.57-24.05,44.95-9.28,3.69-3.12,13.53-7.62,19.13-2.09,1.65.58,4.77-1.93,6.29a12.16,12.16,0,0,1-9.87.1l0,0c0-4.1,2.35-3.16,4.71-2.11l-.1-1.13c-6,1.28-12.17.69-18.24,1.47l-5.82-.53A31,31,0,0,0,332.55,447.55Z" transform="translate(-9.48 -82.06)"/><path class="cls-40" d="M176.37,717.36q99.64-.12,199.29-.22,173.41,0,346.82,0c4.23,0,8.46.17,12.69.27,8.57,2.47,17.4.71,26.07,1.63,4.26.45,9.46,0,9.74,5.66.27,5.39-4.39,8.62-9,8.38-14.08-.7-27.29,4.61-41.35,4.59q-247.65-.39-495.32-.13c-5.51,0-11.08-.68-16.5.94-9.6,1.77-19.32.4-29,1.09a4.57,4.57,0,0,1-3.16-1Z" transform="translate(-9.48 -82.06)"/><path class="cls-41" d="M176.63,756.16V742.69c3.07-1.52,6.38-1.06,9.61-1.06q350.25,0,700.46,0a20.21,20.21,0,0,1,3.84.45c3.88.83,6.85,2.59,6.3,7.15s-3.92,5.84-7.69,6c-10.4.54-20.82.13-31.23.13-159.79-.07-319.57.3-479.36-.09-62.8-.16-125.61.16-188.42.13C185.61,755.47,181.18,756.92,176.63,756.16Z" transform="translate(-9.48 -82.06)"/><path class="cls-12" d="M176.63,756.16c3.53-3.89,8.27-2.91,12.62-2.91q346.35,0,692.69.1c2.89,0,5.81.18,8.68-.1,2.36-.24,4.34-1.43,4.64-4.17s-.92-4.33-3.74-4.55c-3-4.55-7.64-2.88-11.62-2.88-42,0-84,.44-126,.26-187.6-.77-375.21,0-562.81-.37-4.47,0-9.24.82-12.93-2.88,9.55-4.23,19.61-.79,29.36-2,3.72-1.82,7.68-.89,11.52-.89q253.63-.07,507.27-.18c15.18,0,30.32-2.73,45.58-1.78,30.48-.06,61-.12,91.45,0,9.4.25,18.81,0,28.22.18,4.17.08,8.62-.31,11.11,4.26l.06,4.48c-2.33,4.42-1,8.84,0,13.26,0,1.43,0,2.86-.05,4.29-1.88,4.09-5.06,3.74-8.52,2.49a18,18,0,0,0-3.29-1.4c-5.2-.78-10.42-.43-15.62-.43q-340.86,0-681.72-.09c-5.69,0-11.82,1.66-16.88-2.72C176.62,757.51,176.63,756.83,176.63,756.16Z" transform="translate(-9.48 -82.06)"/><path class="cls-42" d="M725.2,654.73c1.77.68,3.53,1.41,5.32,2a5.33,5.33,0,0,1,3.87,5.11c-.07,3.47-3.18,2.39-5.23,2.57s-3.91,0-5.86,0q-307.27,0-614.56-.13c-3.83,0-10.76,2.33-10.89-2.71-.18-6.32,7-5.22,11.68-5.22q300.93-.06,601.85-.11c4.09,0,8.5,1.39,12.26-1.59C724.16,654,724.68,654,725.2,654.73Z" transform="translate(-9.48 -82.06)"/><path class="cls-43" d="M178.14,738.66H729.06q78.86,0,157.69.09c2.55,0,6.18-1.86,7.48,2.06.28.84-1.75,2.45-2.71,3.71q-350.79,0-701.57,0c-4.49,0-9.17.91-13.31-1.82v-4.12Z" transform="translate(-9.48 -82.06)"/><path class="cls-44" d="M136.42,765.74c12.61-2.9,25.48,0,38.15-1.67a2.51,2.51,0,0,0,1.81,0c5.12-4.21,11.23-2.67,16.94-2.68q314.63-.12,629.26-.06c20.52,0,41-.17,61.55.14,4,.06,9.54-1.91,11.28,4.54q-351.18,0-702.36,0C174.18,766,155.3,765.83,136.42,765.74Z" transform="translate(-9.48 -82.06)"/><path class="cls-45" d="M895.41,766c-3.59-3.46-8.07-1.84-12.1-1.84q-353.47-.14-706.93-.1c.1-.66.19-1.32.29-2,3.39-2.79,7.46-1.87,11.27-1.87q348.11-.06,696.19,0c3.83,0,7.88-.78,11.3,1.9a10.56,10.56,0,0,0,7.22-1.77q.48,2.68,1,5.37Z" transform="translate(-9.48 -82.06)"/><path class="cls-46" d="M176.62,758.18q353.37,0,706.73.11c4,0,8.51-1.64,12.07,1.88-3.38,1.79-7,.9-10.55.9q-348.84.07-697.68,0c-3.52,0-7.17.87-10.57-.88Z" transform="translate(-9.48 -82.06)"/><path class="cls-47" d="M176.62,760.19l718.8,0c0,.64,0,1.29,0,1.93l-718.76,0A2.85,2.85,0,0,1,176.62,760.19Z" transform="translate(-9.48 -82.06)"/><path class="cls-48" d="M737.73,667.66H100.59v-.92H737.64Z" transform="translate(-9.48 -82.06)"/><path class="cls-49" d="M725.2,654.73l-.78,0-.78,0-604.85-.11H107.06c3.44-3,6.31-1.88,8.87-1.88q301.94-.11,603.87-.06c2.28,0,4.56,0,6.84.06.19,0,.37.41.55.62Z" transform="translate(-9.48 -82.06)"/><path class="cls-38" d="M423.15,307.86c-7.87,3.44-15.52-1.67-22.59,1.71-.72.35-1.88-.22-2.84-.36.35,9.72-7,1.18-9.91,4.18-4,4.16-10.26,3.49-15.27,5.68-6,2.64-8.38,0-8.74-5.94-.39-6.66-1.58-13-9.7-15.15,6.64,1.53,9-15,18.2-1.31.3-8.46,2.2-12,9.47-10.29,2.65.63,6.39-1.15,8.94-2.86s4-1.47,5.85.35,2.44,3.73,1.05,6.09c-5.15,8.71-1.44,10.82,7.33,11.55C410.83,302,416.47,305.41,423.15,307.86Z" transform="translate(-9.48 -82.06)"/><path class="cls-50" d="M754.66,715.08l-578.45,0c0-.61,0-1.23,0-1.84,3.41-2.72,7.46-1.93,11.3-1.93q277.94-.06,555.88,0c3.84,0,7.88-.79,11.31,1.89C754.71,713.85,754.69,714.47,754.66,715.08Z" transform="translate(-9.48 -82.06)"/><path class="cls-51" d="M754.71,713.24l-578.49,0v-2c3.38-1.81,7-.92,10.54-.92q278.7-.07,557.4,0c3.51,0,7.17-.9,10.54.93C754.7,712,754.7,712.6,754.71,713.24Z" transform="translate(-9.48 -82.06)"/><path class="cls-52" d="M754.7,711.33H176.22c2.88-3.22,6.7-1.91,10.12-1.91q279.12-.09,558.25,0C748,709.41,751.84,708.09,754.7,711.33Z" transform="translate(-9.48 -82.06)"/><path class="cls-53" d="M193.81,625.31c-1.7-6.86,3.86-3.72,5.91-3.74,22.41-.25,44.82-.16,67.24-.16,28.58,0,57.17-.06,85.76.07,3.36,0,7.1-1.32,10.11,3.84H207.49C202.93,628.64,198.37,628.92,193.81,625.31Z" transform="translate(-9.48 -82.06)"/><path class="cls-54" d="M193.81,625.31h13.68c-.21,4.1,1.6,7.94.85,12.31-.44,2.53.43,4.75-2.62,6.13-2.85,1.29-4.75.53-6.79-1.64-4.84-5.13-9.55-10.38-17.8-9.8a4.58,4.58,0,0,1-4.72-5.13c.51-4.8,4-1.54,6-1.82C186.18,624.87,190,624,193.81,625.31Z" transform="translate(-9.48 -82.06)"/><path class="cls-55" d="M301.29,478.78c-8.52,3-17.37.1-26.16,1-7.18.77-15.13.75-22.71,1-6.84.23-13-.19-17.53-6.14C257.12,474.51,279.22,476.36,301.29,478.78Z" transform="translate(-9.48 -82.06)"/><path class="cls-55" d="M235,474.74c-6-3.85-8,8.33-14.24,3.51.85,7.11-6.52,11.18-5.87,18.89-3-3.74.91-9.21-4.81-10.55-2-4.37,2.75-6,3.66-9.24C219.94,469.53,227.59,473.26,235,474.74Z" transform="translate(-9.48 -82.06)"/><path class="cls-56" d="M405.24,381q4.67-7.89,9.34-15.79c2-3.18,2-7.65,6-9.58,1.58-2.3,3.05-4.72,5.88-5.74.2,5.69,2.68,12.17-6.1,14.32-1.53.38-2.92,3.37-3.46,5.39C415.24,375.83,411.18,379.31,405.24,381Z" transform="translate(-9.48 -82.06)"/><path class="cls-57" d="M213.71,477.35c.7,3.85-3.06,5.92-3.67,9.24q-3.31,10.68-6.64,21.38c-2.41-6.73-3.61-12.93,2.06-19.23,2.62-2.91,4.14-7.43,4.31-12C209.86,474.3,210.28,474.31,213.71,477.35Z" transform="translate(-9.48 -82.06)"/><path class="cls-58" d="M160.56,713.24H107.85c13.11-4.21,26.57-1.09,39.84-1.79C151.93,711.23,156.71,709.64,160.56,713.24Z" transform="translate(-9.48 -82.06)"/><path class="cls-59" d="M326.68,351.88c-3.05,8.45-8.25,13.49-18,11.36C314.09,358.5,319.7,354.11,326.68,351.88Z" transform="translate(-9.48 -82.06)"/><path class="cls-60" d="M373.57,445.08c-2.44-3.83,4.94-8-1.28-12.88-2.25-1.76,3.65-6.87,8.9-6.25C379.23,432.55,377.39,439.21,373.57,445.08Z" transform="translate(-9.48 -82.06)"/><path class="cls-60" d="M348.1,449.74c5.93-6.44,13.2.61,19.7-1.63l-6.07,3.4C357.13,451.34,352.39,452.26,348.1,449.74Z" transform="translate(-9.48 -82.06)"/><path class="cls-61" d="M459.46,312.24c-1-2.85-1-6.78-5.83-5.58,4.48-3.3,9.9-.94,14.8-2.84C466.14,307.78,463.39,310.66,459.46,312.24Z" transform="translate(-9.48 -82.06)"/><path class="cls-62" d="M266.24,398.9c1.19,6.44.85,11.58-8,9.35C260.46,404.77,262.53,401.13,266.24,398.9Z" transform="translate(-9.48 -82.06)"/><path class="cls-61" d="M443.74,308.52c1.26,2.51,4.53,1.58,6.7,3.37-5.61,2.13-9.92-1.76-14.73-1.44C438,308.27,440.94,308.67,443.74,308.52Z" transform="translate(-9.48 -82.06)"/><path class="cls-60" d="M332.55,447.55c4.45-6.53,6.34,2,9.73,1.66C339,449.1,335.49,449.91,332.55,447.55Z" transform="translate(-9.48 -82.06)"/><path class="cls-62" d="M258.2,408.26c.56,4.09-1,6.34-5.35,6.06A11,11,0,0,1,258.2,408.26Z" transform="translate(-9.48 -82.06)"/><path class="cls-61" d="M453.7,306.61c-2.72,3.5-6.5,1.7-9.87,2C446.74,306,450.32,306.8,453.7,306.61Z" transform="translate(-9.48 -82.06)"/><path class="cls-60" d="M361.77,451.47l9.87-.1C368.38,454.63,365.08,453.57,361.77,451.47Z" transform="translate(-9.48 -82.06)"/><path class="cls-63" d="M1069.21,994.13c-3.06,4.6-7.75,2.43-11.63,2.43q-321.72.18-643.45.11-195.76,0-391.54-.29c-3.79,0-9.38,4.7-12.26-2.17,4.21.21,8.42.6,12.63.6q516.33,0,1032.66,0C1060.15,994.82,1064.68,994.37,1069.21,994.13Z" transform="translate(-9.48 -82.06)"/><path class="cls-64" d="M19.93,885.32l981-.07c19.54,0,39.09.08,58.63.13-1.21,1.16,2.41,6-1.37,3.86-4.89-2.78-9.44-2-14.07-2q-506-.15-1012.1-.17C28,887.12,23.53,888.74,19.93,885.32Z" transform="translate(-9.48 -82.06)"/><path class="cls-65" d="M902.65,738.3c-12.71-3.46-25.67-.62-38.49-1.59,0-3.68,2.87-2.85,4.91-2.85,8.4,0,16.79-.23,25.18.16,1.31.07-.42-2.16-.1-.89,0,.19-.65.66-1.29.65q-54.51-.13-109,0c-4,0-8.62-1.65-11.56,2.89H207.5c3.57-3.5,8.05-1.86,12.08-1.86q253.26-.14,506.52-.06c12.5,0,24.2-6.25,37-4.35,2.89.42,6.34-2.79,6.08-6.28-.23-3.08-3.76-2.71-6.34-3.14-8-1.31-16-1.21-23.92-.75-2.69.16-3.49-.6-3.79-2.85,53.4-.09,106.8-.11,160.19-.39,5.87,0,8.48,1.51,7.83,7.64C902.71,729.18,902.81,733.76,902.65,738.3Z" transform="translate(-9.48 -82.06)"/><path class="cls-41" d="M902.7,756c-3-4.42-9.62-8.85,0-13.26Q902.71,749.41,902.7,756Z" transform="translate(-9.48 -82.06)"/><path class="cls-5" d="M645.29,273.63c4.42-.3,8.6.13,11.77,3.76C652.65,277.66,648.43,277.31,645.29,273.63Z" transform="translate(-9.48 -82.06)"/><path class="cls-66" d="M973.64,791.41a8.77,8.77,0,0,0-6,2.55c8.07,4.24,16.83,7.44,23.15,14.31,3.26,3.56,4.13-1.39,6.32-1.21q5.59,7.91,11.2,15.82c-1.87,3.76-5.39,4.4-9,4.73-3.9.35-7.81.24-11.72.24h-887c-6.85,0-13.68-.23-20.51-.49-3.55-.13-7.27.15-9.89-3L83.82,805c3.94-3.68,8-.66,11.89,0,4.66.84,9.31,1.47,13.05-1.57,5.78-4.69,12.3-5.33,19.26-5.33q410.49,0,821,0a36.87,36.87,0,0,1,9.53.88c-1.85-3.19-4.15-5.94-2.48-9.41C961.9,790.17,968.1,787.69,973.64,791.41Z" transform="translate(-9.48 -82.06)"/><path class="cls-24" d="M956,789.57c2.06,4.21,2.52,10.33,10.53,7.94-6.2,4.11-12.51,3.69-18.73,3.69q-410.48,0-821,.06c-6.1,0-12.49-1.91-16.64,6.28-1.89,3.71-9.17,2-13.78.87-2.86-.67-4.84-4.16-7.19,1-.88,1.94-2.71,0-2-1.91,1.7-4.79-1.54-2.68-3.4-2.56a9.88,9.88,0,0,1,4.08-5.9c1.13-.64,2.46-1.29,3.6-.83,5.1,2,9.09,2.16,10.44-4.57.31-1.55,2.87-1,3.91-2.26,2.6-2.88,6.07-1.88,9.2-1.88Q535.54,789.49,956,789.57Z" transform="translate(-9.48 -82.06)"/><path class="cls-66" d="M105.85,791.4c-.63.73-1.82,1.45-1.82,2.18-.11,9.75-5.57,9.78-12.59,7.06-1.2-.47-2.36-1-3.54-1.58.77-2.88,1.89-5.55,4.33-7.47C96.84,796.52,101.28,789,105.85,791.4Z" transform="translate(-9.48 -82.06)"/><path class="cls-67" d="M569,167.9c-.08,2.76,1.85,3.92,4,4.89,11.75,5.35,19.5,14.23,23.39,26.51,4.39,20.65-.71,37.79-19,49.59-10,6.47-21.25,1.64-34.2,3.64,5.08-5.51,8.67-9,11.81-12.88,20.11-24.84,9.13-56-16.26-68.23l-6.87-3.35c9.66-.69,19.42,1.08,29-1.75C563.45,165.55,566.72,165.23,569,167.9Z" transform="translate(-9.48 -82.06)"/><path class="cls-1" d="M517.58,236.4c-13.25-.21-24.77-11.23-24.71-23.63.08-15,10.85-25.49,25.88-25.27,13.66.2,24.51,11.76,24.61,26.22C543.45,225.79,531.14,236.62,517.58,236.4Z" transform="translate(-9.48 -82.06)"/><path class="cls-68" d="M70.09,824.32c8.08.11,16.16.32,24.24.32q450.81,0,901.61,0c4.17,0,8.52.88,12.34-1.75l31.9,36.89c.55,6.33.49,12.85,5.73,17.65-.87.88-2.17.72-3.15,1.32,1-.45,2.3-.39,3.15-1.31,2.29,2.37,10.38-3,7.81,5.86h-2c-3.36-1.88-7-.95-10.53-.95q-495.65-.08-991.3,0c-3.5,0-7.16-.93-10.52,1-7.17-1.67-15.76,3.91-21.64-4.26l13.84-13.31a12.37,12.37,0,0,0,6-5.69,34.86,34.86,0,0,0,9.64-9.87C56,842.55,62.36,832.81,70.09,824.32Z" transform="translate(-9.48 -82.06)"/><path class="cls-26" d="M39.42,883.29c2.88-3.2,6.71-1.9,10.12-1.9q496-.09,992.1,0c3.42,0,7.24-1.3,10.13,1.89Z" transform="translate(-9.48 -82.06)"/><path class="cls-69" d="M584.68,109.37H460.15v-1.29h167l.12,1.28H584.68Z" transform="translate(-9.48 -82.06)"/><path class="cls-16" d="M578.81,119.13c3.37-4.46,7.64-6.2,13.4-6,11.63.42,23.29.12,35,1.85H586.77l0,1.92h26.62c0,.74,0,1.48,0,2.22H578.81Z" transform="translate(-9.48 -82.06)"/><path class="cls-70" d="M420.57,355.63c-.44,4.16-3.27,6.84-6,9.58-.13-2.8-.79-5.72-.27-8.4C415.23,352,417.78,352.36,420.57,355.63Z" transform="translate(-9.48 -82.06)"/><path class="cls-59" d="M313.48,369.26c-.55-.79-1.46-1.54-1.34-2.05a2.46,2.46,0,0,1,1.82-1.44c1.32-.11,2.43.69,2,2.15C315.75,368.49,314.51,368.73,313.48,369.26Z" transform="translate(-9.48 -82.06)"/><path class="cls-71" d="M772.3,736.71c-2.17-4.8.78-5.93,4.52-5.81,30.15,1,60.35-1.94,90.49,1.57,9.86,1.15,20,.18,30,.83-10.85,3.58-22.42-1.39-33.11,3.41Z" transform="translate(-9.48 -82.06)"/><path class="cls-26" d="M1045.91,877.43c-2.35,2.64-4.63,2.41-7.42.28,2.89-3.09,5.11.38,7.42-.29Z" transform="translate(-9.48 -82.06)"/></svg>