<svg id="Camada_1" data-name="Camada 1" xmlns="http://www.w3.org/2000/svg" viewBox="0 0 1049.04 225.72"><defs><style>.cls-1{fill:#d71c23;}.cls-2{fill:#8a378c;}.cls-3{fill:#f49932;}.cls-4{fill:#067444;}.cls-5{fill:#16b8de;}.cls-6{fill:#085287;}.cls-7{fill:#095388;}.cls-8{fill:#f4d377;}.cls-9{fill:#fcfcfc;}.cls-10{fill:#f4d378;}.cls-11{fill:#097343;}.cls-12{fill:#fdf9f8;}.cls-13{fill:#f4d477;}.cls-14{fill:#914491;}.cls-15{fill:#227647;}.cls-16{fill:#f49c3a;}.cls-17{fill:#15b8de;}.cls-18{fill:#38bbdf;}.cls-19{fill:#fcede4;}.cls-20{fill:#d4dcd5;}.cls-21{fill:#f3972d;}.cls-22{fill:#f4d376;}.cls-23{fill:#2db8df;}.cls-24{fill:#c2cec5;}.cls-25{fill:#f3962a;}.cls-26{fill:#d6ddd9;}.cls-27{fill:#fbe2d2;}.cls-28{fill:#f49f47;}.cls-29{fill:#812984;}.cls-30{fill:#334174;}.cls-31{fill:#407953;}.cls-32{fill:#2e7849;}.cls-33{fill:#fbe0cb;}.cls-34{fill:#fdede7;}.cls-35{fill:#87338a;}.cls-36{fill:#3f7653;}.cls-37{fill:#e1e6e3;}.cls-38{fill:#f29626;}.cls-39{fill:#43825d;}.cls-40{fill:#578967;}.cls-41{fill:#3c8355;}.cls-42{fill:#407b51;}.cls-43{fill:#0d5c2b;}.cls-44{fill:#16592a;}.cls-45{fill:#3d7b52;}.cls-46{fill:#f3a055;}</style></defs><path class="cls-1" d="M139.37,143.75l-100,16.81L15.48,29.75,146.25,5.51c8.12,44,16.1,87.24,24.2,131.17l-21.68,4.75c-6.3,1.31-9.39-5.14-16.54-5.41-3.62-32.3-2.45-64-.65-96.36-4.13,0-10.74.58-16-.16,3.92,32.39,3.48,64.88.21,98.28C121.57,139.93,133.19,131.52,139.37,143.75Z" transform="translate(-15.48 -5.51)"/><path class="cls-2" d="M936.44,79.26h128.08v135.6h-31.38c-2.76,1.63-5.46,1.81-8.6-.72-3.4-8.36.17-17.8-2.71-30-4.46,12.59-8.74,23-20.91,25.44-10.84,2.17-21.78,4.51-32,0-8.4-20.57-5.5-97.33,4.17-107.11-14.12-3.54-28.9,2.08-42.83-4.57C928.73,90.38,920.42,81.25,936.44,79.26Z" transform="translate(-15.48 -5.51)"/><path class="cls-3" d="M653.39,205.85l-1.2,4.8a8.66,8.66,0,0,1-2.7,3.63H633.36c-9.86-47.65,18.16-86.18,28.2-129,34.57-10.21,68.87-3.22,103.67-5.72v45.93c-15.28,2.59-30.76.2-46.05,1.34-3.64.27-10.66-4-10.31,5.13,5.08,1.64,10.65-.82,17.9,3.08a572.32,572.32,0,0,1,29.85,72.56,6.49,6.49,0,0,1-1.77,6.66c-14.83-1.22-30,3.59-44.54-2.7-12.22-14.73-13-34.25-21.26-50.66-2.57-5.11-2.72-11.35-7.85-16.55-6.83,9.89-9.37,21.14-13.54,31.66C663.6,186.26,662.15,197.82,653.39,205.85Z" transform="translate(-15.48 -5.51)"/><path class="cls-4" d="M831.39,176.43c-.88,9.5,6.53,5.14,9.94,5.2,24.33.42,48.67.22,73.92.22v32.47H860.7c-20,0-40,.2-60-.15-4.39-.07-9.82,2.8-13.21-2.76,7.92-28.68,17.55-56.56,33.66-81.21-3.91-.29-11.64,0-23.44.16,8.7,2.83,13.31,5.77,11.32,11.94-6.13,19-13,37.7-22.45,55.35a3.23,3.23,0,0,1-4.88,1.31V80.06c17.43,1,33.59-2.88,49.6,2.37,4.64,1.15,9.79-.91,16.55,4.19a374.82,374.82,0,0,1,0,85.55C841.19,177.29,836,175.3,831.39,176.43Z" transform="translate(-15.48 -5.51)"/><path class="cls-5" d="M309.16,83.39v99c-4.41,4.93-10.79.88-15.91,4.62,5.86,6.68,14.21.38,21.48,5.58,2.81,5.22.82,12.41.57,19.91-12.32,5.27-23.72-1-36.46-2.3V119.35l11.83-2.45-.23-1.51H255c-6.72,20.75-13.4,41.37-20.07,62l-2.88.36c-6.6-20.67-13.19-41.33-20.1-63H182.09V79.52C223.9,81,265.91,76.47,309.16,83.39Z" transform="translate(-15.48 -5.51)"/><path class="cls-6" d="M482.74,125.78V79.69c35.06,2.45,69.84-4.51,104.12,5.3,13.75,41.77,37,81.16,26.59,128.53H482.86V169c10.14,15.56,19.53,29.45,37.27,33.52,18.56,4.27,33.51-2.1,45.9-15.46,23.71-25.57,20.07-65.08-7.71-86.33C532.89,81.28,506,89.64,482.74,125.78Z" transform="translate(-15.48 -5.51)"/><path class="cls-7" d="M556.26,147.43c0,9.72.73,19.5-.15,29.14-1.35,14.66-10.94,23.07-25,23.29-14.28.22-23.47-7.5-25.38-22.66a245.29,245.29,0,0,1,0-59.63c1.8-15.09,11-22.65,25.48-22.38,14.28.27,23.61,8.44,24.87,23.1C556.92,127.94,556.25,137.71,556.26,147.43Z" transform="translate(-15.48 -5.51)"/><path class="cls-8" d="M387.48,213.94H333.19c-3.7-7-2-14.1-1.62-20.22,4.26-5.84,11.2-.9,16.07-7l-15.43-2.85V139.31c19.4.93,37.63.53,55.27-10.93Z" transform="translate(-15.48 -5.51)"/><path class="cls-9" d="M936.44,79.26c-5,5.9-5,5.9-4.27,16.93,17.52,5.55,37.06-2.29,57.61,5.36-7.71,6.21-14.06,3-20,5.69V207.78c12.82,1.21,25.55,2.56,37.62-4.58,11.15-6.61,7-22.47,18.17-32.33,2.6,16,.41,28.94.59,42.54l6.94,1.45c.24,6.63-2.61,11.81-6.86,16.08-6.69,1.31-11.5-2.13-16.51-3.8-3.68-4.39-5.9-9-6.1-14.46,4.33-5.18,15.34-2.41,14.85-13.09-1.3,8.61-10.49,8-15,13.14l-18,2.5c.61,3.62,1.21,7.22,1.84,10.94-14.44,9.16-25.8-8.22-39.91-2.37-2.31-9.28-15.1-6.15-16.47-16.16,6.74-3.9,10.36-9.16,10.22-17.52-.36-21.69,0-43.38-.17-65.07,0-7-.05-14.25-10.42-13.19l-14.08-2.92c-7.48-21.12-25.5-20.11-42.89-20.4-3.55-.74-6.35-3.14-9.68-4.34-4.07-1.08-8.38-.83-12.38-2.27a6.48,6.48,0,0,1-3-2.91c8.84-2.55,17.58-9.31,26.76,0l12-8.19c12.22,1.78,25.95-5.09,34.49,7.22C927.41,80.1,932.3,73.78,936.44,79.26Z" transform="translate(-15.48 -5.51)"/><path class="cls-10" d="M464.16,131.57c-24.29-8.87-49-6.07-73.36-6.55C394.51,97.2,392,91.48,371,80.21h93.17Z" transform="translate(-15.48 -5.51)"/><path class="cls-11" d="M871.85,85.32c6.71-.23,13.43-.81,20.13-.61,18.54.54,23.21,5.28,24.62,24.23-.15,14.94-.52,29.88-.35,44.82A39.77,39.77,0,0,1,913,170.4c-12.32,11.17-26.57,3.75-40.7,5.62-6.38-14.53-5-28.25-2.39-42.06,5.65-6.9,12-4.79,18.36-1.34,4.2,2.24,4.69,7.63,9.12,11.09.43-10.23.46-19.58,0-29.76-5.08,3-5.64,8.64-10,10.7a16.06,16.06,0,0,1-8.84,2,12.59,12.59,0,0,1-6.89-2.34,12.1,12.1,0,0,1-2.48-4.37C868.56,108.32,865.25,96.43,871.85,85.32Z" transform="translate(-15.48 -5.51)"/><path class="cls-12" d="M139.37,143.75c-7-6.79-15.63-2.13-23.44-3.19-5.43-.74-11-.14-16.58-.14l-.21-3.81,13.62-2.07V42.85c-3.43-3.47-9,.46-16-4.28h50.25l.5,1.56-13.18,2.34v91.36c4.16,4,13.75-2.67,14.38,7.61Z" transform="translate(-15.48 -5.51)"/><path class="cls-13" d="M331.75,135.23V83.72c11.66-1,24.4-5.63,32.38,5.56s7.48,25.67,1.11,37.52C357.94,140.4,344.07,134,331.75,135.23Z" transform="translate(-15.48 -5.51)"/><path class="cls-8" d="M410.83,130.13c11.27-.57,22.36-3.61,31.7,5.13,10.42,32.82,2,43.86-31.7,40.06Z" transform="translate(-15.48 -5.51)"/><path class="cls-14" d="M930.68,111.86c1.48-8.08,7-6.26,13.19-5V206.91c-4.33,3-8.59,1.58-12.82.73Q930.87,159.75,930.68,111.86Z" transform="translate(-15.48 -5.51)"/><path class="cls-15" d="M851.91,79.82l13.78.19c6.3,11.4,2.66,23.78,3.4,35.7,1,16.49-.23,33,0,49.53.07,4.76.93,9.86-3.27,13.67l-16.21-.25c-2.27-25.92-.48-51.89-.79-77.83C848.75,93.81,846.39,86.14,851.91,79.82Z" transform="translate(-15.48 -5.51)"/><path class="cls-16" d="M725.9,129.52h21.15l8.1,22.87a6.38,6.38,0,0,1,2,3.29q1.91,5.65,3.83,11.32c.72,1.1,1.41,2.21,2.08,3.33,5.75,13.58,2.43,27.75,2.57,41.67,0,2.24-2.79,2.05-4.65,2.21-8.91-8.94-10.75-21.38-15.29-32.34C738.61,164.65,729.07,148.26,725.9,129.52Z" transform="translate(-15.48 -5.51)"/><path class="cls-17" d="M195.17,126.64c9.08,28.33,18.16,56.66,27.43,85.61-10.48,5.41-18.95-2.86-28.92-1.45V127.16Z" transform="translate(-15.48 -5.51)"/><path class="cls-18" d="M257.18,210c-9.1.62-17.13,6.67-28,3,9.32-29,18.57-57.7,27.83-86.45C257.69,154.38,260.43,181.85,257.18,210Z" transform="translate(-15.48 -5.51)"/><path class="cls-19" d="M653.39,205.85q12.38-34.44,24.74-68.87l6.35-.63,25.83,75.19-1.13,0-1.12-.14c-7.07.36-6.78-5.92-8.46-9.92-7-16.57-12.5-33.65-18.4-52.88-1.75,12.56,3.51,21.49,6.43,30.94,3.54,11.42,11.1,21.84,8.85,34.74l-6.09-.08c-3.56-3.25-4.64-8.35-8.47-11.15-10.28-8.31-15.57,4.6-23.71,5.36Z" transform="translate(-15.48 -5.51)"/><path class="cls-20" d="M781.71,199c10.95-19.92,18.1-41.39,26.36-61.9-4.88-5.7-14.91,1.82-17.61-9.33,15.3-2.89,29.94-.71,45.26-1.32-1.22,12.48-11.51,5.3-16.49,10.09-11.48,23.93-18.71,50.66-31.73,74.91l-4.71,2.81c-2.68-2.09-2-3.9.15-5.66,2.75-1.37,3.59-3.24,1.57-5.88Z" transform="translate(-15.48 -5.51)"/><path class="cls-21" d="M632.4,149.07V81c8.86-4.32,14,8.18,22.86,1.22.53,1.14,1.06,2.28,1.58,3.42q-11.3,32.08-22.6,64.16Z" transform="translate(-15.48 -5.51)"/><path class="cls-22" d="M410.11,183.38c23.46-3.28,32.4,5.72,30.69,29.83-9.35,2.17-18.87,1-29,.67C407.83,204.08,410.36,194.15,410.11,183.38Z" transform="translate(-15.48 -5.51)"/><path class="cls-23" d="M182.1,213.54V118.6C191.31,125.78,192.38,199.41,182.1,213.54Z" transform="translate(-15.48 -5.51)"/><path class="cls-24" d="M865.84,178.91,865.69,80c3.9-.38,3.69,4,6.16,5.31q.18,19,.37,38.09l0,0,5.85.57c1.62.92,3.57,1.49,3.91,3.74a3.22,3.22,0,0,1-1.9,2.85c-2.44,1.22-5.89-1.63-7.78,1.91v39.66c13.83,2.65,27.3,1.74,40.71-1.76l0-.2c1.67,9.75-7.29,5.78-11,8.54Z" transform="translate(-15.48 -5.51)"/><path class="cls-25" d="M696.48,214.31c-6.94-19.1-13.87-38.2-21-57.76,1.35-4.28,2.81-8.88,5-15.9,11.85,24,16,48.93,27.52,70.78C705.16,216.25,700.47,213.87,696.48,214.31Z" transform="translate(-15.48 -5.51)"/><path class="cls-26" d="M851.91,79.82c-3.33,24.64-.59,49.4-1.45,74.1-.3,8.24-.56,16.49-.83,24.74-6.31,1.12-12.56,1.78-18.24-2.23,3.18-5.67,9.32-.42,13.81-5V86.85c-3.36-4.77-10.56,1-13.89-4.42,5.28-3.65,11.58-2.15,17.33-3.41Z" transform="translate(-15.48 -5.51)"/><path class="cls-21" d="M658.21,208.44l5.73-9.95c6.87-1.89,13.91-1.49,21.25-.22,3,5,5.63,9.94,5.2,16l-31.73,0a2.29,2.29,0,0,1-.9-2.82Z" transform="translate(-15.48 -5.51)"/><path class="cls-27" d="M725.9,129.52,761,214.21l-6.16,0c-7.5-27.36-21.11-52.27-30.19-77.29-5.58-4.5-12.13.69-15.79-5C714.18,128.55,720.09,129.44,725.9,129.52Z" transform="translate(-15.48 -5.51)"/><path class="cls-13" d="M464.73,169.29V202.1c-5.36-12.7-14.22-17.74-25.76-22Z" transform="translate(-15.48 -5.51)"/><path class="cls-28" d="M758.12,153c-1.7-6.29-3.4-12.58-5.09-18.81,4.63-2.1,8.18-1.45,12.41,1.53v26.1c-4.91-.93-3.47-7.37-7.53-9Z" transform="translate(-15.48 -5.51)"/><path class="cls-29" d="M1003.56,212.73c3.7-8.3,14.67-10.86,17.51-20.77v19.22l-17.4,1.51Z" transform="translate(-15.48 -5.51)"/><path class="cls-30" d="M613.62,98c-1.78-4.7-7.49-8.62-2.62-14.55C617.94,87.86,614,93.52,613.62,98Z" transform="translate(-15.48 -5.51)"/><path class="cls-31" d="M902,178.74c3.56-3,9.92-2.38,11-8.54,4.09,1.13,2.69,4.36,3.14,7C911.51,180.62,906.67,178.76,902,178.74Z" transform="translate(-15.48 -5.51)"/><path class="cls-32" d="M784.51,202.68c2.06.81,2.46,2.42,2,4.66l-3.6,1.22C783.46,206.6,784,204.64,784.51,202.68Z" transform="translate(-15.48 -5.51)"/><path class="cls-28" d="M763.09,170.33,761,167Z" transform="translate(-15.48 -5.51)"/><path class="cls-19" d="M649.49,214.28l2.7-3.63Z" transform="translate(-15.48 -5.51)"/><path class="cls-19" d="M657.76,211.38l.9,2.82C656.64,213.81,656,213,657.76,211.38Z" transform="translate(-15.48 -5.51)"/><path class="cls-28" d="M757.18,155.68c-.68-1.1-1.36-2.19-2-3.29l3,.6-.2-.23C757.66,153.74,757.42,154.71,757.18,155.68Z" transform="translate(-15.48 -5.51)"/><path class="cls-33" d="M685.38,124.69c-4.48,4.53-8.94,9.1-17.23,6.32A82.14,82.14,0,0,1,692,106c6.24,3.38,12.29,6.17,2.37,12.47q-.87-.27-1.74-.51c-3.55-1.44-5.32.65-6.73,3.41A32.47,32.47,0,0,1,685.38,124.69Z" transform="translate(-15.48 -5.51)"/><path class="cls-34" d="M694.36,118.43l-9,6.25a3.69,3.69,0,0,0-1.44-1.64c1-5.05,3.58-7.83,9.12-6.47A4.2,4.2,0,0,0,694.36,118.43Z" transform="translate(-15.48 -5.51)"/><path class="cls-35" d="M965.53,103.55V210.26c-4.95,3.24-10.34,1-16.5,1.91V104C954,101.62,959.11,102.56,965.53,103.55Z" transform="translate(-15.48 -5.51)"/><path class="cls-36" d="M899.53,80.07H914c3,2.39,2.37,5.13,1.36,8.49Z" transform="translate(-15.48 -5.51)"/><path class="cls-37" d="M885.92,122.56c7.76-2.62,2.52-16.34,14.58-16.71v46.4c-12.37-.3-6.79-11.81-11.25-16.55l1.75-1.08c4.06.61,5.54,3.36,5.72,5.55-2.06-7.27-3-16,1.83-27.35-3.31,6.38-3.3,12.15-9.61,12.21A3.8,3.8,0,0,1,885.92,122.56Z" transform="translate(-15.48 -5.51)"/><path class="cls-37" d="M872.33,132.5c1.1-6,6-1.55,8.74-3.2,5.74-3.07,8.2-.05,9.51,5.11-.45.42-.89.85-1.33,1.29C883.83,133.44,878.5,130.76,872.33,132.5Z" transform="translate(-15.48 -5.51)"/><path class="cls-37" d="M881.11,126.63c-1-.87-2-1.75-3-2.63l7.82-1.44,1.6,1.94C886.24,127.8,884.19,128.76,881.11,126.63Z" transform="translate(-15.48 -5.51)"/><path class="cls-38" d="M681.88,189.35c-4.87,2.29-9.45,2-15,.13,2.31-6.78,4.58-13.44,7.25-21.25C679.35,175,681,182,681.88,189.35Z" transform="translate(-15.48 -5.51)"/><path class="cls-39" d="M812.52,136.84c1.9-4.31,2.32-5.25,2.73-6.2C816.53,131.79,816.26,132.93,812.52,136.84Z" transform="translate(-15.48 -5.51)"/><path class="cls-40" d="M799,173.3c.26-1.72.51-3.44.83-5.55,2.93,2.82.34,3.94-1,5.35Z" transform="translate(-15.48 -5.51)"/><path class="cls-41" d="M798.78,173.1c-.2,1.74-.4,3.47-.66,5.7-2.85-2.88-1.16-4.22.86-5.49Z" transform="translate(-15.48 -5.51)"/><path class="cls-42" d="M791.22,193.75c-.14-1.52-.24-2.68-.39-4.38C793.16,190.86,793,192.05,791.22,193.75Z" transform="translate(-15.48 -5.51)"/><path class="cls-43" d="M794.45,184.64c-1.18-.77-1.14-1.47.12-2.09C795.75,183.32,795.71,184,794.45,184.64Z" transform="translate(-15.48 -5.51)"/><path class="cls-44" d="M788.56,199.23c-1.15-.73-1.12-1.46.18-2,.12-.05.81.7.78,1S788.91,198.91,788.56,199.23Z" transform="translate(-15.48 -5.51)"/><path class="cls-45" d="M881.11,126.63l6.41-2.13c5.59-2,6.85-7.33,9.82-13.87v33.28l-6.76-9.5c-2.11-3.67-5.44-5.07-9.51-5.11A2.08,2.08,0,0,1,881.11,126.63Z" transform="translate(-15.48 -5.51)"/><path class="cls-37" d="M872.25,123.43c-.42.47-.84.94.21-.23-1.2,1-.72.62-.24.21Z" transform="translate(-15.48 -5.51)"/><path class="cls-46" d="M693.06,116.57,684,123.05c-3.1-8.35,4.6-8.35,7.8-11.55C695.61,113.16,693.39,115,693.06,116.57Z" transform="translate(-15.48 -5.51)"/></svg>